<svg width="27" height="26" viewBox="0 0 27 26" fill="none" xmlns="http://www.w3.org/2000/svg">
<path d="M24.9871 1.23584L15.0078 8.59282L16.8532 4.2523L24.9871 1.23584Z" fill="#E2761B" stroke="#E2761B" stroke-linecap="round" stroke-linejoin="round"/>
<path d="M1.93359 1.23584L11.84 8.66566L10.0836 4.25358L1.93359 1.23584Z" fill="#E4761B" stroke="#E4761B" stroke-linecap="round" stroke-linejoin="round"/>
<path d="M21.4172 18.2808L18.7598 22.3327L24.4457 23.8895L26.0803 18.3706L21.4172 18.2808Z" fill="#E4761B" stroke="#E4761B" stroke-linecap="round" stroke-linejoin="round"/>
<path d="M0.876953 18.3706L2.50374 23.8895L8.19751 22.3327L5.5364 18.2808L0.876953 18.3706Z" fill="#E4761B" stroke="#E4761B" stroke-linecap="round" stroke-linejoin="round"/>
<path d="M7.887 11.4701L6.30273 13.8441L11.9479 14.0924L11.7474 8.08301L7.887 11.4701Z" fill="#E4761B" stroke="#E4761B" stroke-linecap="round" stroke-linejoin="round"/>
<path d="M19.0559 11.4683L15.1384 8.00977L15.0078 14.092L20.653 13.8436L19.0559 11.4683Z" fill="#E4761B" stroke="#E4761B" stroke-linecap="round" stroke-linejoin="round"/>
<path d="M8.19727 22.3238L11.5844 20.6876L8.65824 18.4268L8.19727 22.3238Z" fill="#E4761B" stroke="#E4761B" stroke-linecap="round" stroke-linejoin="round"/>
<path d="M15.3359 20.6876L18.7231 22.3238L18.2535 18.4268L15.3359 20.6876Z" fill="#E4761B" stroke="#E4761B" stroke-linecap="round" stroke-linejoin="round"/>
<path d="M18.725 22.3305L15.3379 20.6846L15.6077 22.8891L15.5777 23.8168L18.725 22.3305Z" fill="#D7C1B3" stroke="#D7C1B3" stroke-linecap="round" stroke-linejoin="round"/>
<path d="M8.19922 22.3305L11.3559 23.8168L11.3358 22.8891L11.5863 20.6846L8.19922 22.3305Z" fill="#D7C1B3" stroke="#D7C1B3" stroke-linecap="round" stroke-linejoin="round"/>
<path d="M11.4014 16.9694L8.56055 16.1355L10.5652 15.2212L11.4014 16.9694Z" fill="#233447" stroke="#233447" stroke-linecap="round" stroke-linejoin="round"/>
<path d="M15.5195 16.9694L16.3527 15.2212L18.3603 16.1355L15.5195 16.9694Z" fill="#233447" stroke="#233447" stroke-linecap="round" stroke-linejoin="round"/>
<path d="M8.19091 22.3235L8.67124 18.2808L5.53906 18.3704L8.19091 22.3235Z" fill="#CD6116" stroke="#CD6116" stroke-linecap="round" stroke-linejoin="round"/>
<path d="M18.2871 18.2808L18.7674 22.3235L21.4193 18.3704L18.2871 18.2808Z" fill="#CD6116" stroke="#CD6116" stroke-linecap="round" stroke-linejoin="round"/>
<path d="M20.653 13.8374L15.0078 14.0868L15.5301 16.9696L16.3639 15.2339L18.3728 16.1416L20.653 13.8374Z" fill="#CD6116" stroke="#CD6116" stroke-linecap="round" stroke-linejoin="round"/>
<path d="M8.59085 16.1416L10.5962 15.2339L11.4185 16.9696L11.9499 14.0868L6.30469 13.8374L8.59085 16.1416Z" fill="#CD6116" stroke="#CD6116" stroke-linecap="round" stroke-linejoin="round"/>
<path d="M6.26758 13.8374L8.63492 18.4264L8.55467 16.1419L6.26758 13.8374Z" fill="#E4751F" stroke="#E4751F" stroke-linecap="round" stroke-linejoin="round"/>
<path d="M18.3499 16.1419L18.25 18.4264L20.6173 13.8374L18.3499 16.1419Z" fill="#E4751F" stroke="#E4751F" stroke-linecap="round" stroke-linejoin="round"/>
<path d="M11.9266 14.0923L11.4023 16.9659L12.0552 20.3566L12.2036 15.892L11.9266 14.0923Z" fill="#E4751F" stroke="#E4751F" stroke-linecap="round" stroke-linejoin="round"/>
<path d="M14.9906 14.0923L14.7168 15.8821L14.8385 20.3566L15.5181 16.9659L14.9906 14.0923Z" fill="#E4751F" stroke="#E4751F" stroke-linecap="round" stroke-linejoin="round"/>
<path d="M15.5326 16.9587L14.8633 20.3557L15.3428 20.6844L18.2598 18.4131L18.3597 16.1318L15.5326 16.9587Z" fill="#F6851B" stroke="#F6851B" stroke-linecap="round" stroke-linejoin="round"/>
<path d="M8.56055 16.1318L8.64092 18.4131L11.5747 20.6844L12.0569 20.3557L11.3938 16.9587L8.56055 16.1318Z" fill="#F6851B" stroke="#F6851B" stroke-linecap="round" stroke-linejoin="round"/>
<path d="M15.5652 23.8078L15.5952 22.8815L15.3446 22.6624H11.5655L11.3349 22.8815L11.3549 23.8078L8.19727 22.3237L9.29995 23.2201L11.5354 24.7639H15.3747L17.6202 23.2201L18.7228 22.3237L15.5652 23.8078Z" fill="#C0AD9E" stroke="#C0AD9E" stroke-linecap="round" stroke-linejoin="round"/>
<path d="M15.3206 20.6834L14.8393 20.3569H12.062L11.5807 20.6834L11.3301 22.87L11.5607 22.6523H15.3406L15.5913 22.87L15.3206 20.6834Z" fill="#161616" stroke="#161616" stroke-linecap="round" stroke-linejoin="round"/>
<path d="M25.4093 9.05746L26.2621 5.00254L24.9879 1.23584L15.3359 8.33195L19.0482 11.4427L24.2956 12.9633L25.4595 11.6216L24.9578 11.2638L25.7605 10.5383L25.1384 10.0613L25.9411 9.455L25.4093 9.05746Z" fill="#763D16" stroke="#763D16" stroke-linecap="round" stroke-linejoin="round"/>
<path d="M0.658203 5.00254L1.51181 9.05746L0.96952 9.455L1.77292 10.0613L1.16033 10.5383L1.96372 11.2638L1.4616 11.6216L2.61648 12.9633L7.8687 11.4427L11.5844 8.33195L1.92355 1.23584L0.658203 5.00254Z" fill="#763D16" stroke="#763D16" stroke-linecap="round" stroke-linejoin="round"/>
<path d="M24.2786 12.9924L19.0324 11.4697L20.6273 13.8482L18.25 18.4261L21.3796 18.3863H26.044L24.2786 12.9924Z" fill="#F6851B" stroke="#F6851B" stroke-linecap="round" stroke-linejoin="round"/>
<path d="M7.88655 11.4697L2.62684 12.9924L0.876953 18.3863H5.54331L8.67098 18.4261L6.29757 13.8482L7.88655 11.4697Z" fill="#F6851B" stroke="#F6851B" stroke-linecap="round" stroke-linejoin="round"/>
<path d="M15.0074 14.0887L15.3386 8.34795L16.8641 4.25879H10.0898L11.5952 8.34795L11.9465 14.0887L12.0669 15.8995L12.077 20.3567H14.8569L14.877 15.8995L15.0074 14.0887Z" fill="#F6851B" stroke="#F6851B" stroke-linecap="round" stroke-linejoin="round"/>
</svg>
