<svg width="19" height="16" viewBox="0 0 19 16" fill="none" xmlns="http://www.w3.org/2000/svg">
<path fill-rule="evenodd" clip-rule="evenodd" d="M9.24003 4.80005L9.27904 5.44884L8.62875 5.3694C6.26165 5.06486 4.1937 4.03209 2.43789 2.29756L1.5795 1.43692L1.3584 2.07247C0.89018 3.48922 1.18932 4.98542 2.16477 5.99171C2.68501 6.54782 2.56795 6.62726 1.67054 6.29624C1.3584 6.19032 1.08527 6.11087 1.05926 6.1506C0.968216 6.24328 1.28036 7.44818 1.52747 7.92485C1.86563 8.58688 2.55495 9.23567 3.30929 9.61965L3.94659 9.92418L3.19224 9.93743C2.4639 9.93743 2.43789 9.95067 2.51593 10.2287C2.77605 11.0894 3.80352 12.003 4.94805 12.4002L5.75442 12.6782L5.0521 13.1019C4.01162 13.711 2.78905 14.0553 1.56649 14.0818C0.981222 14.095 0.5 14.148 0.5 14.1877C0.5 14.3201 2.08673 15.0616 3.01016 15.3529C5.78043 16.2135 9.07095 15.8428 11.5421 14.373C13.2979 13.327 15.0537 11.2483 15.8731 9.23567C16.3153 8.16318 16.7575 6.20356 16.7575 5.26347C16.7575 4.6544 16.7965 4.57496 17.5248 3.84672C17.954 3.42302 18.3572 2.9596 18.4353 2.82719C18.5653 2.57562 18.5523 2.57562 17.889 2.80071C16.7835 3.19793 16.6274 3.14497 17.1737 2.54914C17.5769 2.12544 18.0581 1.35748 18.0581 1.13239C18.0581 1.09266 17.863 1.15887 17.6419 1.27803C17.4078 1.41044 16.8876 1.60905 16.4974 1.72822L15.795 1.95331L15.1578 1.51637C14.8066 1.27803 14.3124 1.01322 14.0522 0.933777C13.3889 0.748408 12.3745 0.774889 11.7762 0.986739C10.1504 1.58257 9.12297 3.11849 9.24003 4.80005Z" fill="#F1AC5D"/>
</svg>
