<svg width="19" height="16" viewBox="0 0 19 16" fill="none" xmlns="http://www.w3.org/2000/svg">
<path fill-rule="evenodd" clip-rule="evenodd" d="M5.45376 5.55987C3.87577 6.25311 2.25445 6.96544 0.771861 7.78714L0.771755 7.7872C-0.00239453 8.35754 1.02661 8.76093 1.99191 9.13935C2.14537 9.19951 2.29718 9.25901 2.43994 9.31845C2.55874 9.35524 2.6795 9.39394 2.80191 9.43317C3.8755 9.77731 5.07255 10.1611 6.11483 9.58381C7.82698 8.59417 9.44272 7.45006 11.0573 6.30681C11.5862 5.93222 12.115 5.55776 12.6471 5.18885C12.672 5.1728 12.7001 5.15444 12.7309 5.13443C13.1841 4.83876 14.2035 4.17392 13.8264 5.09005C12.9348 6.07117 11.9798 6.93962 11.0196 7.81289C10.3724 8.40139 9.72291 8.99207 9.08888 9.62079C8.53669 10.0723 7.96324 10.9801 8.58159 11.6124C10.0058 12.6155 11.4523 13.5944 12.8979 14.5727C13.3683 14.8911 13.8387 15.2094 14.3081 15.5285C15.1037 16.1677 16.3472 15.6506 16.5221 14.6519C16.5999 14.1924 16.678 13.733 16.7561 13.2736C17.1877 10.7345 17.6194 8.19442 18.0008 5.64705C18.0527 5.24743 18.1114 4.84787 18.1703 4.44812C18.3127 3.47922 18.4554 2.50913 18.5 1.53501C18.3851 0.562874 17.2137 0.776651 16.5618 0.99525C13.211 2.27818 9.89369 3.65621 6.5895 5.05855C6.21519 5.22537 5.83575 5.39206 5.45376 5.55987Z" fill="#F1AC5D"/>
</svg>
