<svg width="21" height="22" viewBox="0 0 21 22" fill="none" xmlns="http://www.w3.org/2000/svg">
<path fill-rule="evenodd" clip-rule="evenodd" d="M21 11.3098C21 17.1084 16.2986 21.8098 10.5 21.8098C4.70138 21.8098 0 17.1084 0 11.3098C0 5.51119 4.70138 0.809814 10.5 0.809814C16.2986 0.809814 21 5.51119 21 11.3098ZM17.227 10.4856C17.3967 10.7279 17.493 11.0141 17.5035 11.3098C17.5081 11.5991 17.4306 11.8839 17.2801 12.131C17.1296 12.3781 16.9122 12.5776 16.653 12.7063C16.6652 12.8603 16.6652 13.0143 16.653 13.1683C16.653 15.5203 13.9125 17.4313 10.5315 17.4313C7.1505 17.4313 4.41 15.5203 4.41 13.1683C4.39818 13.0145 4.39818 12.8601 4.41 12.7063C4.20978 12.6126 4.03222 12.4766 3.88954 12.3077C3.74686 12.1389 3.64244 11.9411 3.58345 11.728C3.52447 11.515 3.51232 11.2917 3.54784 11.0735C3.58336 10.8553 3.6657 10.6473 3.78922 10.464C3.91273 10.2806 4.07449 10.1262 4.26336 10.0113C4.45223 9.8964 4.66375 9.82376 4.88336 9.79837C5.10297 9.77299 5.32548 9.79545 5.53559 9.86423C5.74569 9.93301 5.93841 10.0465 6.1005 10.1968C7.31039 9.37627 8.73378 8.92735 10.1955 8.90531L10.9725 5.26181C10.9812 5.21963 10.9982 5.17961 11.0225 5.14405C11.0469 5.10849 11.078 5.07811 11.1141 5.05467C11.1503 5.03123 11.1907 5.0152 11.2331 5.0075C11.2754 4.9998 11.3189 5.00058 11.361 5.00981L13.9335 5.52431C14.0591 5.30847 14.2576 5.14448 14.4932 5.06177C14.7289 4.97905 14.9863 4.98304 15.2192 5.07301C15.4522 5.16298 15.6455 5.33304 15.7644 5.55267C15.8833 5.7723 15.92 6.02711 15.8679 6.27136C15.8159 6.51562 15.6785 6.73332 15.4804 6.88539C15.2823 7.03747 15.0364 7.11395 14.787 7.10112C14.5376 7.08829 14.3009 6.98698 14.1195 6.81538C13.9381 6.64378 13.8237 6.41312 13.797 6.16481L11.55 5.69231L10.8675 8.96831C12.3115 8.99929 13.7155 9.44787 14.91 10.2598C15.0695 10.1065 15.2602 9.98954 15.4692 9.91696C15.6781 9.84438 15.9003 9.8179 16.1205 9.83936C16.3406 9.86081 16.5535 9.92967 16.7445 10.0412C16.9355 10.1528 17.1001 10.3044 17.227 10.4856V10.4856ZM7.18025 11.7762C7.10361 11.8909 7.0503 12.0195 7.02338 12.1548C6.99645 12.2901 6.99644 12.4293 7.02333 12.5646C7.07765 12.8378 7.23827 13.0783 7.46987 13.2331C7.70148 13.3879 7.98508 13.4443 8.2583 13.39C8.39358 13.3631 8.52224 13.3098 8.63693 13.2332C8.75163 13.1566 8.85011 13.0581 8.92675 12.9434C9.08154 12.7118 9.13798 12.4282 9.08367 12.155C9.02935 11.8818 8.86873 11.6414 8.63713 11.4866C8.40552 11.3318 8.12192 11.2753 7.8487 11.3296C7.57549 11.384 7.33504 11.5446 7.18025 11.7762ZM10.5105 16.0558C11.4424 16.0943 12.3594 15.8511 13.104 15.2893C13.1597 15.235 13.1915 15.1608 13.1925 15.083C13.1935 15.0052 13.1636 14.9303 13.1093 14.8746C13.0824 14.847 13.0503 14.825 13.0149 14.8098C12.9795 14.7946 12.9415 14.7865 12.903 14.786C12.8252 14.7851 12.7502 14.815 12.6945 14.8693C12.0573 15.3264 11.2831 15.5524 10.5 15.5098C9.71787 15.5448 8.94729 15.3114 8.316 14.8483C8.2616 14.8037 8.19253 14.7808 8.12224 14.7843C8.05194 14.7878 7.98544 14.8172 7.93568 14.867C7.88591 14.9168 7.85644 14.9833 7.85299 15.0536C7.84953 15.1238 7.87235 15.1929 7.917 15.2473C8.66195 15.8087 9.5785 16.0944 10.5105 16.0558V16.0558ZM12.3314 13.2751C12.5046 13.3906 12.6971 13.4938 12.9045 13.4938C13.0469 13.4955 13.1882 13.4681 13.3197 13.4134C13.4512 13.3587 13.5702 13.2778 13.6694 13.1757C13.7686 13.0735 13.846 12.9522 13.8968 12.8192C13.9476 12.6861 13.9708 12.5441 13.965 12.4018C13.9649 12.2204 13.9179 12.0422 13.8284 11.8844C13.739 11.7266 13.6102 11.5947 13.4546 11.5015C13.299 11.4083 13.122 11.3569 12.9406 11.3525C12.7593 11.3481 12.58 11.3907 12.42 11.4762C12.2601 11.5617 12.125 11.6872 12.0279 11.8404C11.9309 11.9936 11.8752 12.1694 11.8663 12.3505C11.8573 12.5317 11.8955 12.7121 11.977 12.8741C12.0585 13.0361 12.1806 13.1743 12.3314 13.2751V13.2751Z" fill="#F1AC5D"/>
</svg>
