<svg width="21" height="22" viewBox="0 0 21 22" fill="none" xmlns="http://www.w3.org/2000/svg">
<path d="M10.4972 7.80844C8.56916 7.80844 6.99575 9.38185 6.99575 11.3099C6.99575 13.2379 8.56916 14.8113 10.4972 14.8113C12.4252 14.8113 13.9986 13.2379 13.9986 11.3099C13.9986 9.38185 12.4252 7.80844 10.4972 7.80844ZM20.9988 11.3099C20.9988 9.85991 21.012 8.42309 20.9305 6.97577C20.8491 5.29466 20.4656 3.80268 19.2363 2.57337C18.0044 1.34144 16.515 0.960563 14.8339 0.879135C13.3839 0.797706 11.9471 0.81084 10.4998 0.81084C9.04985 0.81084 7.61303 0.797706 6.16571 0.879135C4.4846 0.960563 2.99262 1.34407 1.76331 2.57337C0.53138 3.80531 0.150505 5.29466 0.0690761 6.97577C-0.0123524 8.42572 0.000781304 9.86254 0.000781304 11.3099C0.000781304 12.7572 -0.0123524 14.1966 0.0690761 15.644C0.150505 17.3251 0.534007 18.817 1.76331 20.0464C2.99525 21.2783 4.4846 21.6592 6.16571 21.7406C7.61566 21.822 9.05248 21.8089 10.4998 21.8089C11.9498 21.8089 13.3866 21.822 14.8339 21.7406C16.515 21.6592 18.007 21.2757 19.2363 20.0464C20.4682 18.8144 20.8491 17.3251 20.9305 15.644C21.0146 14.1966 20.9988 12.7598 20.9988 11.3099V11.3099ZM10.4972 16.6973C7.51584 16.6973 5.10976 14.2912 5.10976 11.3099C5.10976 8.32853 7.51584 5.92245 10.4972 5.92245C13.4785 5.92245 15.8846 8.32853 15.8846 11.3099C15.8846 14.2912 13.4785 16.6973 10.4972 16.6973ZM16.1052 6.96C15.4092 6.96 14.847 6.39789 14.847 5.7018C14.847 5.00572 15.4092 4.4436 16.1052 4.4436C16.8013 4.4436 17.3634 5.00572 17.3634 5.7018C17.3636 5.86709 17.3312 6.0308 17.2681 6.18354C17.2049 6.33629 17.1123 6.47507 16.9954 6.59195C16.8785 6.70883 16.7397 6.8015 16.587 6.86465C16.4342 6.92781 16.2705 6.96021 16.1052 6.96V6.96Z" fill="#F1AC5D"/>
</svg>
