<svg width="113" height="14" viewBox="0 0 113 14" fill="none" xmlns="http://www.w3.org/2000/svg">
<path d="M10.0954 3.41554H3.28298V7.09354H10.0954V3.41554ZM11.503 1.03249C11.8944 1.03249 12.2335 1.1746 12.5202 1.45876C12.8069 1.74292 12.9503 2.07871 12.9503 2.46943V8.03319C12.9503 8.4336 12.8069 8.77271 12.5202 9.05364C12.2335 9.33134 11.8944 9.47013 11.503 9.47013H11.2531L13.4902 13.1546H10.1581L7.92064 9.47013H3.28298V13.1546H0.435547V1.03249H11.503Z" fill="#F1AC5D"/>
<path d="M18.0733 1.03249H15.2259V13.1562H18.0733V1.03249Z" fill="#F1AC5D"/>
<path d="M21.2563 1.03215H31.6117V3.41781H22.6638V5.89713H30.8848C31.2756 5.89713 31.6136 6.04083 31.8972 6.32758C32.1816 6.61432 32.3237 6.95338 32.3237 7.3441V11.7166C32.3237 12.1129 32.1816 12.4519 31.8972 12.7335C31.6136 13.0151 31.2756 13.1559 30.8848 13.1559H19.809V10.7702H29.4689V8.28281H21.2563C20.8597 8.28281 20.5194 8.14202 20.2355 7.86044C19.951 7.57886 19.809 7.24013 19.809 6.84392V2.47136C19.809 2.08032 19.951 1.74288 20.2355 1.4584C20.5194 1.17423 20.8597 1.03215 21.2563 1.03215Z" fill="#F1AC5D"/>
<path d="M36.9065 1.03249H34.0591V13.1562H36.9065V1.03249Z" fill="#F1AC5D"/>
<path d="M41.4892 6.21036V13.1559H38.6418V0.437988L48.3017 7.97797V1.03247H51.1491V13.7426L41.4892 6.21036Z" fill="#F1AC5D"/>
<path d="M54.324 1.03215H64.6801V3.41781H55.7322V10.7702H62.545V8.28281H59.6898V5.89713H65.3921V11.7166C65.3921 12.1129 65.2501 12.4519 64.9656 12.7335C64.6814 13.0151 64.3436 13.1559 63.9526 13.1559H54.324C53.9281 13.1559 53.5887 13.0151 53.3075 12.7335C53.0259 12.4519 52.8851 12.1129 52.8851 11.7166V2.47136C52.8851 2.08032 53.0259 1.74288 53.3075 1.4584C53.5887 1.17423 53.9281 1.03215 54.324 1.03215Z" fill="#F1AC5D"/>
<path d="M73.1262 1.03215H83.4817V3.41781H74.5338V5.89713H82.7548C83.1455 5.89713 83.4836 6.04083 83.7671 6.32758C84.0516 6.61432 84.1937 6.95338 84.1937 7.3441V11.7166C84.1937 12.1129 84.0516 12.4519 83.7671 12.7335C83.4836 13.0151 83.1455 13.1559 82.7548 13.1559H71.6789V10.7702H81.3388V8.28281H73.1262C72.7297 8.28281 72.3893 8.14202 72.1055 7.86044C71.821 7.57886 71.6789 7.24013 71.6789 6.84392V2.47136C71.6789 2.08032 71.821 1.74288 72.1055 1.4584C72.3893 1.17423 72.7297 1.03215 73.1262 1.03215Z" fill="#F1AC5D"/>
<path d="M95.5896 1.03215H98.437V11.7166C98.437 12.1129 98.2959 12.4519 98.0143 12.7335C97.7324 13.0151 97.3937 13.1559 96.9971 13.1559H87.3685C86.9727 13.1559 86.6336 13.0151 86.352 12.7335C86.0708 12.4519 85.9297 12.1129 85.9297 11.7166V1.03215H88.7771V10.7702H95.5896V1.03215Z" fill="#F1AC5D"/>
<path d="M103.02 6.21036V13.1559H100.172V0.437988L109.832 7.97797V1.03247H112.68V13.7426L103.02 6.21036Z" fill="#F1AC5D"/>
</svg>
