<svg width="28" height="27" viewBox="0 0 28 27" fill="none" xmlns="http://www.w3.org/2000/svg">
<path d="M12.0316 4.31258L13.3686 2.69478L14.5011 5.69804C15.0242 5.73334 15.5324 5.82323 16.0202 5.9616L13.8035 0.0830078L10.572 3.99334L11.9647 9.22856C12.3536 9.02365 12.7771 8.87551 13.2243 8.79566L12.0316 4.31258Z" fill="#F1AC5D"/>
<path d="M18.8138 5.49476L20.9032 5.2961L19.5796 8.22209C19.9171 8.60909 20.2154 9.03099 20.4676 9.48249L23.0575 3.75693L18.0075 4.23694L15.2907 8.92317C15.7219 9.05692 16.1243 9.25613 16.4868 9.50869L18.8138 5.49476Z" fill="#F1AC5D"/>
<path d="M22.7735 11.1264L24.3913 12.4632L21.3881 13.5958C21.3527 14.1189 21.263 14.627 21.1246 15.1148L27.0031 12.8983L23.0928 9.66675L17.8575 11.0594C18.0624 11.4483 18.2106 11.8717 18.2904 12.3189L22.7735 11.1264Z" fill="#F1AC5D"/>
<path d="M23.3292 22.1522L22.8492 17.1022L18.1631 14.3854C18.0292 14.8167 17.83 15.219 17.5774 15.5815L21.5913 17.9085L21.79 19.9979L18.8654 18.6749C18.4782 19.0125 18.0554 19.3101 17.6037 19.5623L23.3292 22.1522Z" fill="#F1AC5D"/>
<path d="M15.9597 21.8682L14.6228 23.486L13.4903 20.4829C12.9672 20.4476 12.4591 20.3579 11.9713 20.2195L14.1878 26.0978L17.4193 22.1875L16.0266 16.9523C15.6378 17.1572 15.2143 17.3053 14.7671 17.3852L15.9597 21.8682Z" fill="#F1AC5D"/>
<path d="M9.17748 20.6861L7.08822 20.8847L8.41162 17.959C8.07405 17.5719 7.77613 17.1496 7.52397 16.6981L4.93378 22.4239L9.98379 21.9439L12.7007 17.2577C12.2694 17.1239 11.8671 16.9247 11.5045 16.6721L9.17748 20.6861Z" fill="#F1AC5D"/>
<path d="M5.21785 15.0543L3.60006 13.7175L6.60331 12.585C6.63861 12.0618 6.72851 11.5535 6.86701 11.0658L0.988281 13.2824L4.89861 16.5139L10.1338 15.1213C9.92893 14.7324 9.78078 14.309 9.70094 13.8617L5.21785 15.0543Z" fill="#F1AC5D"/>
<path d="M6.40003 8.2722L6.20151 6.18294L9.12668 7.50607C9.51355 7.1685 9.93599 6.87058 10.3874 6.61842L4.6622 4.02851L5.14221 9.07852L9.82844 11.7953C9.96219 11.3641 10.1614 10.9616 10.414 10.5992L6.40003 8.2722Z" fill="#F1AC5D"/>
</svg>
