<svg width="19" height="19" viewBox="0 0 19 19" fill="none" xmlns="http://www.w3.org/2000/svg">
<path d="M9.00391 0.090332C4.03441 0.090332 0.00390625 4.12083 0.00390625 9.09033C0.00390625 14.0598 4.03441 18.0903 9.00391 18.0903C13.9734 18.0903 18.0039 14.0598 18.0039 9.09033C18.0039 4.12083 13.9757 0.090332 9.00391 0.090332ZM4.44391 9.39258L4.48216 9.33183L6.82441 5.66883C6.83225 5.65679 6.84319 5.64708 6.85607 5.64071C6.86895 5.63434 6.88331 5.63154 6.89764 5.63261C6.91197 5.63369 6.92575 5.63859 6.93754 5.64681C6.94933 5.65502 6.95869 5.66626 6.96466 5.67933C7.35466 6.55608 7.69366 7.64658 7.53466 8.32533C7.46866 8.60433 7.28341 8.98233 7.07416 9.33183C7.04731 9.38296 7.01803 9.43277 6.98641 9.48108C6.97883 9.49186 6.9687 9.50059 6.95692 9.50648C6.94513 9.51237 6.93207 9.51524 6.91891 9.51483H4.51366C4.4993 9.51505 4.48515 9.51138 4.47271 9.50421C4.46028 9.49704 4.45001 9.48663 4.44301 9.47409C4.43601 9.46156 4.43254 9.44736 4.43296 9.43301C4.43338 9.41866 4.43768 9.40469 4.44541 9.39258H4.44391ZM14.8794 10.6526C14.8796 10.6686 14.8751 10.6843 14.8664 10.6978C14.8577 10.7112 14.8453 10.7219 14.8307 10.7283C14.6484 10.8056 14.0282 11.0921 13.7702 11.4498C13.1117 12.3663 12.6092 13.6773 11.4842 13.6773H6.79366C6.39763 13.6767 6.0056 13.5981 5.63997 13.446C5.27435 13.2938 4.94229 13.0711 4.66278 12.7905C4.38327 12.5099 4.16178 12.1771 4.01098 11.8109C3.86018 11.4447 3.78302 11.0524 3.78391 10.6563V10.6023C3.78391 10.5588 3.81991 10.5228 3.86491 10.5228H6.47866C6.53116 10.5228 6.56866 10.5701 6.56491 10.6218C6.54541 10.7913 6.57766 10.9661 6.65866 11.1243C6.81316 11.4393 7.13566 11.6358 7.48291 11.6358H8.77741V10.6256H7.49641C7.4814 10.6254 7.46671 10.6212 7.45394 10.6133C7.44117 10.6054 7.43079 10.5942 7.42392 10.5808C7.41705 10.5675 7.41396 10.5525 7.41497 10.5375C7.41598 10.5226 7.42106 10.5081 7.42966 10.4958L7.47691 10.4283C7.59691 10.2551 7.77016 9.98883 7.94266 9.68433C8.05966 9.47883 8.17366 9.25983 8.26516 9.03933C8.28316 9.00033 8.29741 8.95908 8.31391 8.91933C8.33866 8.84883 8.36416 8.78283 8.38216 8.71758C8.39982 8.66225 8.41608 8.60649 8.43091 8.55033C8.47366 8.36283 8.49166 8.16483 8.49166 7.96008C8.49166 7.87908 8.48866 7.79433 8.48116 7.71483C8.47741 7.62708 8.46616 7.53858 8.45566 7.45083C8.44727 7.37232 8.43526 7.29424 8.41966 7.21683C8.39947 7.09897 8.37496 6.98189 8.34616 6.86583L8.33566 6.82083C8.31316 6.73983 8.29366 6.66333 8.26816 6.58308C8.19674 6.33664 8.11466 6.09341 8.02216 5.85408C7.98992 5.76406 7.9544 5.67525 7.91566 5.58783C7.86166 5.45433 7.80616 5.33358 7.75591 5.22033C7.7309 5.17181 7.70739 5.12254 7.68541 5.07258C7.66101 5.01869 7.63525 4.96542 7.60816 4.91283C7.59016 4.87308 7.56841 4.83483 7.55416 4.79883L7.39591 4.50783C7.37416 4.46808 7.41016 4.41933 7.45366 4.43208L8.44366 4.69983H8.45116L8.58091 4.73733L8.72491 4.77783L8.77741 4.79208V4.20483C8.77741 3.92058 9.00391 3.69033 9.28666 3.69033C9.35342 3.69015 9.41953 3.70348 9.48102 3.72952C9.5425 3.75555 9.59807 3.79376 9.64441 3.84183C9.74017 3.93842 9.79405 4.06882 9.79441 4.20483V5.07783L9.90016 5.10708C9.90766 5.11083 9.91666 5.11458 9.92341 5.11983C9.94891 5.13783 9.98641 5.16633 10.0337 5.20233C10.0712 5.23083 10.1109 5.26683 10.1574 5.30508C10.3055 5.42574 10.4491 5.55183 10.5879 5.68308C10.7484 5.83233 10.9284 6.00708 11.1009 6.20133C11.1497 6.25683 11.1962 6.31083 11.2449 6.37083C11.2914 6.43008 11.3439 6.48783 11.3874 6.54483C11.4467 6.62283 11.5074 6.70383 11.5637 6.78783C11.5884 6.82758 11.6192 6.86883 11.6424 6.90858C11.7144 7.01508 11.7759 7.12458 11.8352 7.23483C11.8607 7.28508 11.8854 7.34058 11.9072 7.39458C11.9739 7.54233 12.0264 7.69158 12.0587 7.84308C12.0693 7.87524 12.0766 7.90842 12.0804 7.94208V7.94958C12.0909 7.99233 12.0947 8.03958 12.0984 8.08758C12.1195 8.30926 12.0924 8.53288 12.0189 8.74308C11.9957 8.80608 11.9739 8.87058 11.9454 8.93358C11.8892 9.06108 11.8247 9.19083 11.7474 9.31008C11.7219 9.35508 11.6912 9.40158 11.6627 9.44658C11.6304 9.49383 11.5959 9.53883 11.5674 9.58158C11.5262 9.63837 11.4829 9.69366 11.4377 9.74733C11.3979 9.80133 11.3582 9.85533 11.3132 9.90408C11.2524 9.97758 11.1932 10.0466 11.1294 10.1126C11.0934 10.1561 11.0544 10.2011 11.0124 10.2401C10.9734 10.2851 10.9314 10.3248 10.8954 10.3608C10.8324 10.4238 10.7829 10.4711 10.7394 10.5123L10.6367 10.6038C10.6223 10.6182 10.6029 10.6263 10.5827 10.6263H9.79441V11.6358H10.7859C11.0072 11.6358 11.2179 11.5578 11.3889 11.4123C11.4467 11.3621 11.7002 11.1423 12.0009 10.8108C12.0107 10.7995 12.0238 10.7917 12.0384 10.7883L14.7759 9.99558C14.7879 9.99211 14.8006 9.99146 14.8129 9.9937C14.8252 9.99594 14.8368 10.001 14.8469 10.0085C14.8569 10.016 14.865 10.0257 14.8707 10.0368C14.8763 10.048 14.8793 10.0603 14.8794 10.0728V10.6526Z" fill="#F1AC5D"/>
</svg>
