<svg width="18" height="18" viewBox="0 0 18 18" fill="none" xmlns="http://www.w3.org/2000/svg">
<path d="M8.99758 5.99885C7.345 5.99885 5.99636 7.34749 5.99636 9.00008C5.99636 10.6527 7.345 12.0013 8.99758 12.0013C10.6502 12.0013 11.9988 10.6527 11.9988 9.00008C11.9988 7.34749 10.6502 5.99885 8.99758 5.99885ZM17.999 9.00008C17.999 7.75726 18.0103 6.5257 17.9405 5.28514C17.8707 3.84419 17.5419 2.56535 16.4883 1.51166C15.4323 0.455712 14.1557 0.129248 12.7148 0.0594523C11.472 -0.0103436 10.2404 0.00091383 8.99983 0.00091383C7.75702 0.00091383 6.52546 -0.0103436 5.28489 0.0594523C3.84395 0.129248 2.5651 0.457964 1.51141 1.51166C0.455469 2.5676 0.129004 3.84419 0.0592081 5.28514C-0.0105877 6.52795 0.000669689 7.75951 0.000669689 9.00008C0.000669689 10.2406 -0.0105877 11.4745 0.0592081 12.715C0.129004 14.156 0.45772 15.4348 1.51141 16.4885C2.56736 17.5444 3.84395 17.8709 5.28489 17.9407C6.52771 18.0105 7.75927 17.9992 8.99983 17.9992C10.2426 17.9992 11.4742 18.0105 12.7148 17.9407C14.1557 17.8709 15.4346 17.5422 16.4883 16.4885C17.5442 15.4326 17.8707 14.156 17.9405 12.715C18.0125 11.4745 17.999 10.2429 17.999 9.00008ZM8.99758 13.6179C6.44215 13.6179 4.3798 11.5555 4.3798 9.00008C4.3798 6.44465 6.44215 4.38229 8.99758 4.38229C11.553 4.38229 13.6154 6.44465 13.6154 9.00008C13.6154 11.5555 11.553 13.6179 8.99758 13.6179ZM13.8045 5.27163C13.2078 5.27163 12.726 4.78981 12.726 4.19317C12.726 3.59653 13.2078 3.11471 13.8045 3.11471C14.4011 3.11471 14.8829 3.59653 14.8829 4.19317C14.8831 4.33484 14.8554 4.47516 14.8012 4.60609C14.7471 4.73701 14.6677 4.85597 14.5675 4.95615C14.4673 5.05633 14.3483 5.13576 14.2174 5.1899C14.0865 5.24403 13.9462 5.2718 13.8045 5.27163Z" fill="#F1AC5D"/>
</svg>
