<svg width="18" height="18" viewBox="0 0 18 18" fill="none" xmlns="http://www.w3.org/2000/svg">
<path fill-rule="evenodd" clip-rule="evenodd" d="M18 9C18 13.9703 13.9703 18 9 18C4.02975 18 0 13.9703 0 9C0 4.02975 4.02975 0 9 0C13.9703 0 18 4.02975 18 9ZM9.3225 6.64425C8.44725 7.008 6.6975 7.76175 4.074 8.90475C3.648 9.07425 3.4245 9.24 3.40425 9.402C3.36975 9.6765 3.71325 9.7845 4.17975 9.93075C4.2435 9.951 4.3095 9.97125 4.377 9.99375C4.83675 10.143 5.45475 10.3177 5.77575 10.3245C6.0675 10.3305 6.393 10.2105 6.75225 9.9645C9.20325 8.30925 10.4685 7.473 10.548 7.455C10.6042 7.44225 10.6823 7.42575 10.7347 7.473C10.7872 7.5195 10.782 7.608 10.7768 7.632C10.7423 7.77675 9.39675 9.0285 8.69925 9.6765C8.48175 9.87825 8.328 10.0215 8.2965 10.0545C8.226 10.1272 8.154 10.197 8.085 10.2638C7.6575 10.6748 7.338 10.9838 8.103 11.4878C8.4705 11.73 8.7645 11.9303 9.05775 12.1298C9.378 12.348 9.6975 12.5655 10.1115 12.837C10.2165 12.906 10.317 12.9773 10.4152 13.047C10.788 13.3132 11.1233 13.5517 11.5373 13.5142C11.7773 13.4917 12.0262 13.266 12.1522 12.5917C12.45 10.9972 13.0365 7.54425 13.1722 6.12075C13.1805 6.00256 13.1755 5.88382 13.1572 5.76675C13.1463 5.6722 13.1003 5.5852 13.0282 5.523C12.921 5.43525 12.7545 5.4165 12.6795 5.418C12.3413 5.424 11.8223 5.60475 9.3225 6.64425Z" fill="#F1AC5D"/>
</svg>
